<svg xmlns="http://www.w3.org/2000/svg" viewBox="0 0 400 400" role="img" aria-labelledby="title">
  <title id="title">Donation QR code placeholder</title>
  <rect width="400" height="400" fill="#ffffff"/>
  <rect x="20" y="20" width="120" height="120" fill="#000000"/>
  <rect x="40" y="40" width="80" height="80" fill="#ffffff"/>
  <rect x="60" y="60" width="40" height="40" fill="#000000"/>
  <rect x="260" y="20" width="120" height="120" fill="#000000"/>
  <rect x="280" y="40" width="80" height="80" fill="#ffffff"/>
  <rect x="300" y="60" width="40" height="40" fill="#000000"/>
  <rect x="20" y="260" width="120" height="120" fill="#000000"/>
  <rect x="40" y="280" width="80" height="80" fill="#ffffff"/>
  <rect x="60" y="300" width="40" height="40" fill="#000000"/>
  <rect x="160" y="160" width="40" height="40" fill="#000000"/>
  <rect x="220" y="160" width="40" height="40" fill="#000000"/>
  <rect x="160" y="220" width="40" height="40" fill="#000000"/>
  <rect x="220" y="220" width="40" height="40" fill="#000000"/>
  <rect x="140" y="80" width="40" height="40" fill="#000000"/>
  <rect x="200" y="80" width="40" height="40" fill="#000000"/>
  <rect x="80" y="140" width="40" height="40" fill="#000000"/>
  <rect x="80" y="200" width="40" height="40" fill="#000000"/>
  <rect x="260" y="260" width="40" height="40" fill="#000000"/>
  <rect x="320" y="260" width="40" height="40" fill="#000000"/>
  <rect x="260" y="320" width="40" height="40" fill="#000000"/>
  <text x="200" y="375" text-anchor="middle" font-family="Segoe UI, Tahoma, Geneva, Verdana, sans-serif" font-size="24" fill="#000000">QR CODE</text>
</svg>
